<svg width="1078" height="382" viewBox="0 0 1078 382" fill="none" xmlns="http://www.w3.org/2000/svg">
<path opacity="0.05" d="M-343.208 381.168C-372.563 381.168 -400.893 377.584 -428.2 370.416C-455.165 362.907 -477.181 353.349 -494.248 341.744L-460.968 266.992C-444.925 277.232 -426.493 285.765 -405.672 292.592C-384.509 299.077 -363.517 302.32 -342.696 302.32C-328.701 302.32 -317.437 301.125 -308.904 298.736C-300.371 296.005 -294.227 292.592 -290.472 288.496C-286.376 284.059 -284.328 278.939 -284.328 273.136C-284.328 264.944 -288.083 258.459 -295.592 253.68C-303.101 248.901 -312.829 244.976 -324.776 241.904C-336.723 238.832 -350.035 235.76 -364.712 232.688C-379.048 229.616 -393.555 225.691 -408.232 220.912C-422.568 216.133 -435.709 209.989 -447.656 202.48C-459.603 194.629 -469.331 184.56 -476.84 172.272C-484.349 159.643 -488.104 143.771 -488.104 124.656C-488.104 103.152 -482.301 83.696 -470.696 66.288C-458.749 48.88 -441 34.8853 -417.448 24.304C-393.896 13.7226 -364.541 8.43198 -329.384 8.43198C-305.832 8.43198 -282.792 11.1626 -260.264 16.624C-237.395 21.744 -217.085 29.424 -199.336 39.664L-230.568 114.928C-247.635 105.712 -264.531 98.8853 -281.256 94.448C-297.981 89.6693 -314.195 87.28 -329.896 87.28C-343.891 87.28 -355.155 88.816 -363.688 91.888C-372.221 94.6187 -378.365 98.3733 -382.12 103.152C-385.875 107.931 -387.752 113.392 -387.752 119.536C-387.752 127.387 -384.168 133.701 -377 138.48C-369.491 142.917 -359.763 146.672 -347.816 149.744C-335.528 152.475 -322.216 155.376 -307.88 158.448C-293.203 161.52 -278.696 165.445 -264.36 170.224C-249.683 174.661 -236.371 180.805 -224.424 188.656C-212.477 196.165 -202.92 206.235 -195.752 218.864C-188.243 231.152 -184.488 246.683 -184.488 265.456C-184.488 286.277 -190.461 305.563 -202.408 323.312C-214.013 340.72 -231.592 354.715 -255.144 365.296C-278.355 375.877 -307.709 381.168 -343.208 381.168ZM-3.004 378.608C-33.3827 378.608 -60.348 372.464 -83.9 360.176C-107.452 347.888 -126.055 330.992 -139.708 309.488C-153.02 287.643 -159.676 262.725 -159.676 234.736C-159.676 206.747 -153.02 182 -139.708 160.496C-126.055 138.992 -107.452 122.267 -83.9 110.32C-60.348 98.032 -33.3827 91.888 -3.004 91.888C27.3747 91.888 54.34 98.032 77.892 110.32C101.785 122.267 120.388 138.992 133.7 160.496C147.012 182 153.668 206.747 153.668 234.736C153.668 262.725 147.012 287.643 133.7 309.488C120.388 330.992 101.785 347.888 77.892 360.176C54.34 372.464 27.3747 378.608 -3.004 378.608ZM-3.004 301.296C8.26001 301.296 18.1587 298.736 26.692 293.616C35.5667 288.496 42.564 280.987 47.684 271.088C52.804 260.848 55.364 248.731 55.364 234.736C55.364 220.741 52.804 208.965 47.684 199.408C42.564 189.509 35.5667 182 26.692 176.88C18.1587 171.76 8.26001 169.2 -3.004 169.2C-13.9267 169.2 -23.8253 171.76 -32.7 176.88C-41.2333 182 -48.2307 189.509 -53.692 199.408C-58.812 208.965 -61.372 220.741 -61.372 234.736C-61.372 248.731 -58.812 260.848 -53.692 271.088C-48.2307 280.987 -41.2333 288.496 -32.7 293.616C-23.8253 298.736 -13.9267 301.296 -3.004 301.296ZM315.468 378.608C292.94 378.608 272.631 374.171 254.54 365.296C236.791 356.421 222.796 342.597 212.556 323.824C202.657 304.709 197.708 280.645 197.708 251.632V96.496H294.988V235.76C294.988 257.264 298.913 272.624 306.764 281.84C314.956 291.056 326.391 295.664 341.068 295.664C350.625 295.664 359.329 293.445 367.18 289.008C375.031 284.571 381.345 277.573 386.124 268.016C390.903 258.117 393.292 245.488 393.292 230.128V96.496H490.572V374H397.9V295.664L415.82 317.68C406.263 338.16 392.439 353.52 374.348 363.76C356.257 373.659 336.631 378.608 315.468 378.608ZM677.136 378.608C641.637 378.608 613.989 369.904 594.192 352.496C574.395 334.747 564.496 308.123 564.496 272.624V34.544H661.776V271.6C661.776 281.499 664.507 289.349 669.968 295.152C675.429 300.613 682.427 303.344 690.96 303.344C702.565 303.344 712.464 300.443 720.656 294.64L744.72 362.736C736.528 368.197 726.459 372.123 714.512 374.512C702.565 377.243 690.107 378.608 677.136 378.608ZM524.048 179.44V106.736H725.264V179.44H524.048ZM962.968 91.888C984.472 91.888 1003.93 96.3253 1021.34 105.2C1038.74 113.733 1052.4 127.045 1062.3 145.136C1072.54 163.227 1077.66 186.608 1077.66 215.28V374H980.376V231.152C980.376 211.355 976.28 197.019 968.088 188.144C960.237 178.928 949.144 174.32 934.808 174.32C924.568 174.32 915.181 176.709 906.648 181.488C898.115 185.925 891.459 192.923 886.68 202.48C881.901 212.037 879.512 224.496 879.512 239.856V374H782.232V-5.90402H879.512V175.344L856.984 152.304C867.565 132.165 882.072 117.147 900.504 107.248C918.936 97.008 939.757 91.888 962.968 91.888Z" fill="black"/>
</svg>
