<svg width="960" height="960" viewBox="0 0 960 960" fill="none" xmlns="http://www.w3.org/2000/svg">
<path fill-rule="evenodd" clip-rule="evenodd" d="M536.655 169C662.308 169 770.579 243.367 819.879 350.555C816.023 353.047 812.582 356.193 809.675 359.754C807.777 362.069 806.115 364.562 804.632 367.114C802.615 362.84 798.64 359.576 793.657 358.626L741.984 346.756C733.322 335.954 720.151 332.987 707.634 338.863L649.553 325.509C649.672 313.401 649.375 301.293 648.722 289.245C647.714 270.965 645.934 252.685 643.561 234.464C642.908 229.36 639.349 225.087 634.484 223.425C597.642 211.021 559.258 202.83 520.814 197.429C489.431 192.978 457.75 190.426 426.07 189.179C460.42 176.122 497.736 169 536.655 169ZM848 494.718C846.28 533.475 837.499 570.391 822.905 604.221C793.42 600.066 760.612 613.361 736.703 628.139C730.237 632.116 724.008 636.508 718.075 641.197C715.287 624.4 710.896 607.901 704.43 591.995C700.336 581.905 695.412 572.231 689.717 562.972L772.833 562.378C780.724 562.319 787.309 556.384 788.08 548.55L789.089 538.994C794.547 537.214 799.886 534.958 804.988 532.288C821.956 523.444 836.135 510.15 847.407 494.837L848 494.718ZM339.335 722.092C327.41 712.358 316.197 701.675 305.875 690.28C307.832 690.873 309.849 691.408 311.926 691.823C341.886 697.58 369.947 679.597 388.576 657.577C388.635 657.459 388.754 657.34 388.872 657.221C398.958 645.232 407.501 631.404 414.205 616.981C420.078 620.186 426.367 622.679 432.893 624.341C445.41 627.487 458.106 627.427 470.506 623.925C482.43 620.602 493.228 614.311 502.423 606.001C515.06 594.665 524.493 579.828 531.137 564.218L606.067 563.625C611.94 567.127 618.347 569.619 624.992 571.103C635.374 582.261 643.68 594.725 649.968 608.554C625.763 608.732 601.558 609.147 577.471 610.275C568.75 610.69 559.97 611.106 551.308 612.055C544.545 612.767 533.985 613.598 533.985 623.095C533.985 632.709 544.842 633.481 551.664 634.193C560.563 635.143 569.64 635.558 578.598 635.974C605.592 637.22 632.704 637.576 659.698 637.695C663.969 655.738 665.428 679.661 665.368 698.179C662.229 706.03 660.407 712.582 659.09 720.163C657.501 729.305 656.469 739.978 657.52 746.859C659.354 758.859 665.368 764.132 665.368 764.132C549.997 818.309 414.205 787.687 339.335 722.092ZM266.6 636.508C260.727 626.299 255.447 615.794 250.701 604.993H153.406C134.48 604.993 118.996 589.443 118.996 570.51C118.996 551.577 134.48 536.086 153.406 536.086H199.68C200.095 536.561 200.57 537.036 200.985 537.51C201.104 537.629 201.282 537.748 201.401 537.867C206.087 542.377 211.961 545.641 218.368 547.066C225.25 548.55 232.369 547.837 238.776 544.989C243.522 542.911 247.497 539.825 250.82 536.086H338.623C327.944 542.377 317.74 549.796 308.663 557.868C292.052 557.215 275.44 556.978 258.888 556.978C237.412 556.978 215.758 557.334 194.341 558.639C187.696 559.055 180.814 559.53 174.229 560.479C167.822 561.429 159.398 563.209 159.398 571.578C159.398 579.946 167.822 581.786 174.229 582.677C180.814 583.685 187.696 584.16 194.341 584.576C215.758 585.881 237.412 586.238 258.888 586.238C267.075 586.238 275.262 586.178 283.449 586C273.245 601.016 266.185 618.643 266.6 636.508ZM303.146 467.239H290.272C288.195 461.838 285.11 456.793 281.076 452.401C282.203 445.932 281.195 439.284 278.525 433.231C286.119 425.337 295.492 419.58 306.705 418.69C307.002 418.63 307.298 418.63 307.595 418.63L303.146 467.239ZM165.33 456.437C159.457 450.264 155.897 441.955 155.897 432.815C155.897 413.882 171.381 398.392 190.307 398.392H210.3H236.344C235.573 399.223 234.801 400.053 234.03 400.944C232.725 402.487 231.479 404.089 230.174 405.692C228.691 405.811 227.148 406.048 225.665 406.404C215.402 408.6 206.562 414.654 202.053 424.269C201.875 424.565 201.757 424.922 201.579 425.218C189.417 429.314 178.619 437.326 170.907 447.594C168.83 450.383 166.932 453.351 165.33 456.437ZM308.426 338.032C302.374 332.749 294.484 329.485 285.822 329.485H264.109H180.458C161.533 329.485 146.049 313.995 146.049 295.062C146.049 276.129 161.533 260.638 180.458 260.638H315.96C334.055 242.477 354.404 226.57 376.473 213.276C378.668 216.778 380.804 220.279 382.94 223.781C380.448 223.722 377.956 223.722 375.405 223.722C372.854 223.662 370.303 224.434 368.108 225.799C361.879 229.775 359.98 238.203 363.955 244.435C370.125 254.228 376.176 264.08 381.99 274.051C381.931 274.051 381.812 274.111 381.753 274.111C374.99 275.357 370.125 280.877 369.295 287.287C353.039 287.643 336.724 288.177 320.588 289.126C314.892 289.483 309.078 289.898 303.442 290.61C297.332 291.441 289.678 293.103 289.678 301.175C289.678 309.246 297.51 310.908 303.62 311.68C309.375 312.451 315.308 312.867 321.181 313.223C331.207 313.816 341.293 314.232 351.437 314.529L328.003 319.039C321.655 320.226 316.791 325.271 315.723 331.503C315.604 331.919 315.545 332.334 315.545 332.749L315.07 338.032C314.062 338.032 313.112 338.032 312.163 338.032H308.426ZM91.4094 398.392C110.453 398.392 125.819 413.764 125.819 432.815C125.819 451.808 110.453 467.239 91.4094 467.239C72.4249 467.239 57 451.808 57 432.815C57 413.764 72.4249 398.392 91.4094 398.392Z" fill="#F57423"/>
<path fill-rule="evenodd" clip-rule="evenodd" d="M786.433 734.017L736.094 755.706C696.013 770.71 668.988 763.544 666.091 753.354C663.194 743.164 664.455 736.033 666.091 725.135C667.641 714.816 673.735 699.532 673.735 699.532C674.268 674.113 672.135 650.234 666.091 628.37C597.24 628.192 542.491 625.763 542.491 622.741C542.491 619.838 595.403 617.409 662.595 617.172C661.706 614.624 660.758 612.135 659.751 609.706C652.819 592.7 642.805 576.939 628.999 562.6C621.593 561.297 614.423 558.571 608.083 554.364L524.596 555.016C517.545 573.503 507.709 588.493 496.036 599.04C487.504 606.625 477.964 612.017 467.714 614.92C457.108 617.883 446.027 618.12 434.829 615.216C426.415 613.142 418.001 609.291 409.705 603.603C403.128 620.193 393.411 637.14 381.442 651.36C358.808 678.142 333.566 686.378 313.42 682.468C305.421 680.927 298.192 677.49 292.267 672.454C286.342 667.477 281.72 660.9 278.817 653.256C271.647 634.058 275.499 607.81 298.133 581.028C299.496 579.428 300.918 577.828 302.399 576.228C289.423 576.643 274.61 576.939 258.789 576.939C208.899 576.939 168.43 574.391 168.43 571.31C168.43 568.229 208.899 565.741 258.789 565.741C278.58 565.741 296.889 566.096 311.82 566.807C325.981 553.653 342.394 542.928 357.8 535.937C364.436 532.974 370.895 530.663 376.998 529.182L313.657 508.858C310.576 508.147 308.443 505.244 308.798 501.985L317.271 410.025C313.361 409.492 309.509 409.433 305.836 409.729C292.089 410.796 279.528 417.847 268.625 430.586C268.211 431.001 267.855 431.475 267.5 431.889C268.151 432.838 268.685 433.845 269.218 434.793C272.654 441.37 273.425 448.599 270.877 455.116C282.135 464.656 285.631 478.225 284.031 490.727C283.32 496.415 281.542 501.926 278.935 506.725C276.269 511.643 272.714 515.85 268.625 518.753C262.878 522.723 256.182 524.442 249.131 522.486C245.458 529.597 240.48 534.159 235.089 536.529C230.23 538.662 225.134 539.077 220.275 538.01C215.476 537.003 210.973 534.515 207.299 530.9C205.462 529.063 203.862 526.634 202.677 523.849C198.293 524.264 194.323 523.79 190.886 522.605C185.85 520.827 182.058 517.509 179.628 513.006C177.614 509.095 176.666 504.296 177.258 499.378C172.933 495.526 170.267 490.786 169.141 485.631C167.896 480.299 168.311 474.61 169.911 468.922C171.511 463.412 174.355 457.961 178.088 452.924C185.257 443.444 196.041 435.504 208.603 432.541C208.958 431.001 209.491 429.519 210.143 428.097C213.343 421.283 219.742 416.839 227.504 415.18C229.815 414.706 232.244 414.469 234.792 414.469C236.748 411.803 238.762 409.255 240.836 406.826C258.256 386.384 279.291 375.126 302.932 373.23C308.739 372.756 314.605 372.874 320.649 373.585L322.071 358.357C318.693 358.357 315.375 358.357 311.998 358.357C232.718 358.357 168.43 355.869 168.43 352.788C168.43 349.647 232.718 347.159 311.998 347.159C315.731 347.159 319.404 347.159 323.078 347.159L324.322 333.708C324.619 330.924 326.692 328.553 329.537 328.02L383.16 317.71L381.027 306.393C332.322 305.504 298.548 303.549 298.548 301.357C298.548 299.105 331.433 297.209 379.072 296.32L378.005 290.691C377.354 287.195 379.664 283.818 383.16 283.166C384.108 282.988 385.116 283.048 386.004 283.285L398.507 285.595C397.677 284.055 396.788 282.514 395.9 280.974C388.552 267.761 380.316 254.073 371.369 239.912C370.006 237.838 370.658 235.053 372.732 233.69C373.502 233.216 374.332 232.979 375.161 232.979C380.138 233.039 385.649 233.098 391.633 233.216C394.063 233.216 396.433 233.276 398.685 233.335C393.233 223.973 387.367 214.374 381.205 204.598C379.842 202.524 380.494 199.739 382.568 198.376C383.338 197.902 384.168 197.665 384.997 197.665C433.347 197.902 478.083 200.924 519.145 206.671C560.207 212.419 597.477 220.951 631.014 232.268C632.732 232.802 633.858 234.283 634.095 235.942C636.524 254.666 638.183 272.678 639.131 289.921C639.902 304.734 640.198 319.014 639.842 332.76L708.22 348.462C718.648 342.241 729.373 344.433 735.95 354.861L791.114 367.541C794.373 368.075 796.743 371.156 796.387 374.533L793.247 404.515C796.032 400.545 799.764 397.345 804.149 395.272C804.564 395.094 805.038 394.916 805.453 394.679C806.045 382.473 810.133 372.519 815.881 365.527C819.792 360.727 824.591 357.291 829.568 355.335C834.782 353.38 840.293 353.084 845.448 354.565C850.188 355.987 854.632 359.009 858.305 363.69C859.253 363.572 860.261 363.453 861.209 363.453C866.364 363.394 871.341 364.757 875.607 367.482C881.177 370.978 885.443 376.726 887.398 384.488C890.657 385.199 893.619 386.68 896.049 388.754C899.426 391.598 901.855 395.627 903.1 400.486C905.114 408.544 903.87 419.15 898.123 430.941C897.649 431.949 897.115 432.897 896.701 433.786L896.641 433.845C889.235 448.006 879.695 457.961 868.26 463.175C868.26 464.004 868.2 464.775 868.141 465.604C867.904 467.678 867.371 469.752 866.482 471.707V471.766L866.245 472.3C863.045 479.114 856.646 483.558 848.884 485.217C846.633 485.691 844.203 485.928 841.715 485.928C829.509 503.585 815.17 516.206 800.061 524.145C793.484 527.582 786.729 530.13 779.974 531.848L778.374 547.372C778.019 550.572 775.353 553.12 772.034 553.12L672.135 553.89C681.852 566.807 689.496 580.554 695.48 595.13C703.598 615.038 708.397 636.192 710.649 658.47C719.715 650.057 729.847 642.176 740.749 635.421C779.796 611.246 813.511 607.869 834.842 616.52C843.255 619.897 849.773 625.171 854.099 631.748C858.483 638.384 860.616 646.324 860.024 655.034C858.661 675.357 842.604 700.184 806.638 722.404C799.942 726.551 793.188 730.403 786.433 734.017ZM790.344 432.304L784.24 491.142C792.95 486.342 801.364 478.936 809.067 468.744C808.356 467.678 807.704 466.671 807.171 465.545C804.564 460.627 803.497 455.294 804.208 450.258C797.217 444.57 792.773 438.407 790.344 432.304ZM416.638 541.921C418.771 547.254 419.719 553.89 419.482 561.297C428.133 570.599 436.547 575.932 444.25 577.887C448.812 579.072 453.256 579.013 457.344 577.887C461.729 576.643 466.114 574.095 470.262 570.362C474.587 566.452 478.557 561.415 482.053 555.312L460.07 555.49C459.181 555.549 458.352 555.371 457.581 555.075L416.638 541.921Z" fill="#2F2A30"/>
<path d="M585.566 520.59C614.718 559.045 655.128 561.474 688.369 528.589C686.651 533.211 684.458 537.299 681.97 540.973L766.227 540.321L782.995 378.799L741.281 369.26C741.933 372.697 742.348 376.489 742.407 380.696C736.6 372.282 729.549 366.949 721.787 364.757L718.706 364.046C709.759 362.446 699.923 364.816 689.673 371.215C691.865 366.534 694.353 362.446 696.901 359.009L620.821 341.53C622.006 345.5 622.836 349.766 623.369 354.506C614.955 344.611 605.534 338.389 595.639 335.782L593.032 335.19C581.715 332.938 569.746 335.427 557.955 342.715C560.265 337.323 562.813 332.76 565.598 328.85L492.836 312.141L467.002 542.632L594.691 541.625C590.425 535.759 587.225 528.708 585.566 520.59ZM479.919 312.2L336.647 339.693L335.995 347.218C403.839 347.692 455.567 350.003 455.567 352.788C455.567 355.573 403.306 357.883 334.929 358.298L333.329 375.896C346.898 379.274 360.881 385.554 375.161 394.798C382.568 399.597 390.093 405.285 397.618 411.744C405.321 418.321 406.209 429.816 399.632 437.519C393.055 445.162 381.501 446.051 373.858 439.474C367.518 434.082 361.296 429.401 355.193 425.431C346.424 419.743 337.951 415.595 329.892 412.929L322.071 498.074L454.322 540.558L479.919 312.2ZM589.951 463.353C585.507 460.271 581.893 456.124 579.7 451.147C604.882 461.634 627.635 467.441 648.018 470.344C668.401 473.248 686.473 473.248 702.353 472.003C701.227 474.67 699.153 476.862 696.605 478.462L696.25 479.528C688.843 500.859 676.518 515.021 662.831 521.835C654.654 525.923 646.004 527.464 637.53 526.397C629.117 525.271 620.94 521.657 613.77 515.376V515.435C602.038 505.125 592.913 487.765 589.951 463.353ZM590.899 346.566C608.675 349.766 622.362 371.511 621.473 395.153C621.414 396.931 621.236 398.768 620.999 400.486C621.236 381.051 609.86 363.394 595.224 360.787C580.233 358.061 567.494 372.104 566.724 392.013C566.428 401.019 568.561 409.67 572.412 416.721C573.242 416.662 574.13 416.662 574.96 416.662C572.412 411.862 571.464 405.522 572.649 398.945C574.96 386.028 584.677 377.022 594.336 378.74C599.609 379.688 603.757 383.658 606.067 389.109C605.949 389.05 605.83 389.05 605.653 388.991C602.216 388.398 598.898 390.709 598.246 394.146C597.654 397.642 599.964 400.901 603.401 401.552C605.119 401.849 606.779 401.434 608.141 400.545C608.082 402.086 607.964 403.626 607.667 405.226C606.482 411.744 603.401 417.314 599.372 420.928C602.868 422.172 606.186 423.654 609.267 425.431L609.8 425.727L609.86 425.787L610.156 425.964L610.334 426.083L610.511 426.142L610.808 426.32V426.379L611.104 426.498L611.341 426.675C617.029 430.349 621.532 434.852 623.962 440.244C600.676 428.512 575.967 422.468 549.837 422.587C554.399 419.743 560.206 417.965 566.546 417.136C560.384 408.129 556.71 396.16 557.184 383.599C558.073 359.957 573.182 343.367 590.899 346.566ZM686.473 445.695C685.406 450.436 682.503 454.82 677.526 457.783C669.349 462.582 651.04 461.634 638.004 445.103C655.839 453.517 666.979 453.517 672.963 450.021C676.637 447.888 678.178 444.273 677.941 440.718C677.763 437.045 675.748 433.549 672.312 431.712C668.045 429.401 661.409 429.757 652.818 435.622C656.728 427.209 670.653 421.58 679.481 426.379C679.303 422.765 679.659 418.913 680.548 415.062C680.666 414.647 680.725 414.292 680.844 413.936C681.022 412.396 681.318 410.796 681.673 409.255C686.295 388.754 701.641 374.237 716.04 376.844C730.379 379.392 738.259 398.116 733.638 418.558C731.208 429.401 725.698 438.585 719.002 444.392C723.683 446.94 727.594 450.258 730.201 454.05C716.04 448.421 701.404 445.636 686.473 445.695ZM702.945 438.822C706.974 439.533 710.944 440.718 714.559 442.259C719.062 437.4 722.676 430.645 724.394 422.942C728.305 405.641 721.669 389.88 709.522 387.687C698.383 385.732 686.532 395.923 681.673 411.033C685.406 403.745 692.043 399.36 698.62 400.545C703.419 401.375 707.152 404.93 709.226 409.848C709.107 409.848 708.989 409.788 708.87 409.788C705.73 409.255 702.767 411.329 702.234 414.41C701.641 417.551 703.715 420.513 706.856 421.106C708.396 421.402 709.878 420.987 711.122 420.158C711.063 421.58 710.944 423.002 710.648 424.424C709.581 430.468 706.678 435.563 702.945 438.822ZM761.427 418.736C763.501 419.091 765.219 420.691 766.286 423.002C767.175 425.016 767.589 427.623 767.352 430.29C767.293 430.764 767.234 431.179 767.175 431.534C766.76 433.904 765.812 435.919 764.627 437.341C763.205 439 761.368 439.889 759.413 439.711H759.353L759.116 439.652H759.057C756.983 439.296 755.265 437.637 754.198 435.385C753.31 433.371 752.895 430.764 753.132 428.038C753.191 427.623 753.25 427.209 753.31 426.853C753.724 424.483 754.672 422.468 755.857 421.046C757.279 419.387 759.116 418.499 761.072 418.676H761.131L761.368 418.736H761.427ZM763.145 389.939C765.279 390.294 766.938 391.894 768.004 394.205C768.893 396.22 769.308 398.827 769.071 401.552C769.011 401.967 768.952 402.382 768.893 402.737C768.478 405.108 767.53 407.122 766.345 408.544C764.923 410.203 763.086 411.092 761.19 410.914H761.131L760.835 410.855H760.775C758.701 410.499 756.983 408.84 755.976 406.589C755.028 404.574 754.613 401.967 754.85 399.242C754.909 398.827 754.969 398.412 755.028 398.057C755.443 395.686 756.391 393.672 757.635 392.25C758.998 390.591 760.835 389.702 762.79 389.88H762.849L763.086 389.939H763.145Z" fill="#B3B3B3"/>
<path d="M685.821 481.721C673.852 481.899 660.817 481.247 646.774 479.232C632.198 477.158 616.496 473.663 599.668 468.152C621.769 497.6 665.142 502.755 685.821 481.721ZM802.43 643.361L849.239 663.922C860.319 628.726 826.96 634.177 802.43 643.361ZM298.963 594.597C284.09 615.69 281.72 635.481 287.231 650.116C289.541 656.337 293.274 661.611 298.074 665.64C302.814 669.61 308.621 672.454 315.138 673.698C330.366 676.602 349.268 671.091 367.458 653.256C353.652 649.82 339.491 642.65 326.989 631.925C315.849 622.327 305.954 609.884 298.963 594.597ZM739.03 666.766C757.042 654.797 776.24 644.25 793.719 637.14C810.132 630.444 825.182 626.711 836.914 627.541C835.255 626.534 833.419 625.645 831.522 624.874C815.05 618.179 789.75 619.838 759.649 635.066C749.28 644.428 742.407 654.975 739.03 666.766ZM794.134 646.679C786.728 649.82 779.084 653.553 771.381 657.759L836.263 686.26C840.944 680.69 844.439 675.18 846.869 669.906L794.134 646.679ZM764.39 661.611C757.694 665.462 750.999 669.61 744.422 673.935L815.821 705.28C821.983 700.658 827.316 695.977 831.759 691.296L764.39 661.611ZM738.141 678.142C736.185 679.505 734.23 680.868 732.275 682.29C728.186 685.253 724.157 688.274 720.247 691.296L789.809 721.93C793.897 719.619 797.867 717.249 801.896 714.819C804.622 713.101 807.288 711.383 809.777 709.665L738.141 678.142ZM714.618 695.799C708.929 700.54 703.597 705.28 698.857 709.902L760.005 736.802C767.471 733.543 775.114 729.87 782.758 725.781L714.618 695.799ZM694.057 714.76C690.087 718.967 686.651 722.996 683.806 726.848C682.977 728.033 682.147 729.159 681.436 730.284L724.75 749.364C733.282 747.053 742.407 744.031 751.887 740.239L694.057 714.76ZM678.237 735.854C674.978 742.609 674.8 747.942 678.888 750.963C686.414 754.815 698.916 754.815 714.381 751.734L678.237 735.854ZM813.332 456.479C813.688 458.138 814.28 459.797 815.11 461.397C817.717 466.374 822.457 470.937 828.738 473.9C835.018 476.862 841.536 477.573 846.987 476.447C852.024 475.322 856.112 472.596 858.068 468.508L858.127 468.448C858.423 467.737 858.719 467.026 858.897 466.256C847.106 468.804 833.893 466.73 819.316 459.679C818.25 459.146 817.361 458.672 816.532 458.257C815.406 457.664 814.339 457.072 813.332 456.479ZM877.976 384.31C876.436 380.103 873.888 376.963 870.807 375.007C868.081 373.289 864.763 372.4 861.326 372.46C857.831 372.519 854.098 373.585 850.602 375.659C843.906 379.629 837.922 387.273 834.663 399.005C835.492 399.597 836.381 400.249 837.211 400.96C840.647 403.804 843.314 406.707 845.21 409.611C846.928 404.456 850.542 399.242 856.349 394.738C864.111 388.635 871.459 385.317 877.976 384.31ZM848.706 366.475C846.869 364.875 844.914 363.809 842.899 363.216C839.64 362.209 836.144 362.446 832.767 363.749C829.212 365.112 825.716 367.66 822.812 371.215C818.546 376.37 815.465 383.658 814.576 392.665C818.428 392.487 822.516 393.079 826.604 394.62C830.693 381.525 837.922 372.756 846.039 367.956C846.928 367.423 847.817 366.949 848.706 366.475ZM808.592 418.913C817.361 427.86 826.486 430.408 832.885 429.046C834.959 428.631 836.737 427.742 837.981 426.557C839.107 425.49 839.877 424.128 840.114 422.587C840.647 418.676 838.277 413.462 831.522 407.833C823.168 400.96 814.517 400.308 807.999 403.389C804.74 404.93 801.956 407.418 800.059 410.44C798.104 413.521 797.038 417.195 797.097 421.165C797.275 430.527 803.792 441.429 820.679 450.258V450.317C821.687 450.791 822.516 451.206 823.227 451.561C837.922 458.731 850.72 460.034 861.563 456.242C872.407 452.391 881.531 443.325 888.701 429.638C889.175 428.749 889.59 427.86 890.005 427.031C894.804 417.254 895.93 408.84 894.389 402.678C893.619 399.656 892.256 397.227 890.301 395.568C888.405 393.968 885.857 393.079 882.894 392.961C877.206 392.724 870.036 395.449 861.86 401.789C854.69 407.418 852.202 413.936 852.913 419.032C853.209 421.165 854.098 422.943 855.401 424.305C856.645 425.55 858.423 426.379 860.556 426.557C866.185 427.09 874.125 423.298 883.013 412.336C880.643 429.283 867.607 436.274 859.727 435.563C855.46 435.149 851.787 433.371 849.061 430.586C848.469 429.994 847.935 429.401 847.402 428.69C846.573 430.349 845.506 431.83 844.143 433.075C841.714 435.386 838.455 437.045 834.722 437.815V437.874C826.249 439.652 809.303 431.534 808.592 418.913ZM261.693 439.77L260.804 441.074C255.353 449.488 243.976 451.917 235.563 446.406C228.038 441.548 225.312 432.127 228.63 424.128C223.89 425.313 220.098 427.979 218.261 431.89C216.365 436.037 216.839 440.955 219.209 445.518C221.816 450.495 226.556 455.057 232.837 457.961C239.118 460.923 245.635 461.694 251.146 460.509C256.182 459.442 260.271 456.716 262.226 452.569C264.063 448.658 263.707 444.096 261.693 439.77ZM262.167 504.355C259.738 503.407 257.249 502.874 254.76 502.815C254.286 506.962 253.516 510.636 252.509 514.013C256.419 514.724 260.212 513.658 263.411 511.406C266.433 509.273 269.04 506.192 271.055 502.459C273.129 498.667 274.551 494.223 275.143 489.601C276.328 480.121 273.899 469.989 265.9 462.642C262.522 465.96 258.019 468.211 252.983 469.278C245.695 470.878 237.103 469.93 229.045 466.137C220.927 462.286 214.706 456.302 211.269 449.665C209.966 447.117 209.018 444.51 208.484 441.844C199.004 444.688 190.886 450.91 185.257 458.316C182.176 462.464 179.865 466.967 178.562 471.411C177.318 475.677 177.021 479.884 177.851 483.617C178.325 485.809 179.214 487.824 180.517 489.661C183.183 485.157 187.568 481.188 193.908 478.758C189.227 485.987 186.679 492.683 186.087 498.371C185.613 502.518 186.146 506.074 187.568 508.799C188.931 511.288 191.064 513.125 193.908 514.132C195.863 514.784 198.234 515.139 200.9 514.961C200.841 509.095 203.092 502.933 208.958 498.371C205.285 509.747 208.129 519.109 213.639 524.501V524.56C216.069 526.93 219.031 528.589 222.172 529.3C225.193 529.952 228.393 529.715 231.415 528.352C237.577 525.627 243.028 518.398 245.339 505.244C242.673 506.785 240.066 509.095 237.755 512.236C241.547 486.639 260.093 492.683 262.167 504.355Z" fill="white"/>
<path d="M403.958 242.46C399.573 242.341 395.426 242.223 391.456 242.164C388.908 242.104 386.182 242.104 383.279 242.045C390.626 253.777 397.44 265.331 403.721 276.589C410.298 288.203 416.282 299.461 421.615 310.363L436.487 307.519C430.384 293.061 423.156 277.952 414.86 262.309C411.424 255.792 407.809 249.215 403.958 242.46ZM630.894 330.687C631.191 317.829 630.894 304.379 630.183 290.395C629.295 274.278 627.754 257.451 625.502 239.853C593.151 229.187 557.244 221.07 517.841 215.559C479.682 210.167 438.087 207.264 393.115 206.731C404.195 224.506 414.09 241.63 422.8 258.102C431.569 274.693 439.154 290.573 445.494 305.801L485.667 298.098C486.615 297.802 487.622 297.802 488.689 298.039L576.382 318.184C589.536 309.356 604.468 312.911 614.007 326.835L630.894 330.687Z" fill="white"/>
<path fill-rule="evenodd" clip-rule="evenodd" d="M595.224 360.787C610.156 363.453 621.71 381.821 620.999 401.789C620.584 412.218 616.911 421.046 611.341 426.675C607.727 424.365 603.697 422.469 599.372 420.928C603.401 417.314 606.482 411.744 607.667 405.226C607.964 403.626 608.082 402.086 608.141 400.545C606.779 401.434 605.12 401.849 603.401 401.552C599.965 400.901 597.654 397.642 598.246 394.146C598.898 390.709 602.216 388.398 605.653 388.991C605.831 389.05 605.949 389.05 606.068 389.109C603.757 383.658 599.609 379.688 594.336 378.74C584.677 377.022 574.96 386.028 572.649 398.945C571.464 405.522 572.412 411.862 574.96 416.662C574.131 416.662 573.242 416.662 572.412 416.721C568.561 409.67 566.428 401.019 566.724 392.013C567.494 372.104 580.234 358.061 595.224 360.787ZM702.945 438.822C706.974 439.533 710.944 440.718 714.559 442.259C719.062 437.4 722.676 430.645 724.394 422.943C728.305 405.641 721.669 389.88 709.522 387.687C698.383 385.732 686.532 395.923 681.674 411.033C685.406 403.745 692.043 399.36 698.62 400.545C703.419 401.375 707.152 404.93 709.226 409.848C709.107 409.848 708.989 409.789 708.87 409.789C705.73 409.255 702.767 411.329 702.234 414.41C701.642 417.551 703.715 420.513 706.856 421.106C708.396 421.402 709.878 420.987 711.122 420.158C711.063 421.58 711.359 420.691 710.648 424.424C709.996 428.157 706.678 435.563 702.945 438.822Z" fill="white"/>
<path d="M410.535 554.838C410.002 547.965 408.046 542.632 404.432 539.61C396.848 533.152 380.139 535.7 361.474 544.173C349.268 549.683 336.351 557.682 324.619 567.518C339.847 568.466 349.15 569.829 349.15 571.31C349.15 573.088 335.996 574.688 315.435 575.695C311.761 579.25 308.265 582.983 305.007 586.834C304.473 587.486 303.94 588.138 303.407 588.79C310.043 604.61 319.879 617.409 331.196 627.067C343.995 638.028 358.63 645.02 372.554 647.864C373.206 647.153 373.917 646.383 374.569 645.553C376.761 643.006 378.835 640.339 380.85 637.614C371.784 635.362 363.548 631.925 356.141 627.363C348.261 622.564 341.328 616.461 335.225 609.054C334.159 607.691 334.336 605.677 335.699 604.551C337.062 603.425 339.077 603.662 340.202 605.025C345.772 611.839 352.231 617.468 359.519 621.912C366.807 626.356 374.924 629.674 383.931 631.748C384.227 631.866 384.464 631.925 384.701 632.044C386.775 629.022 388.671 625.882 390.508 622.682C382.331 620.49 374.806 617.29 367.992 613.083C360.23 608.343 353.416 602.358 347.49 595.13C346.365 593.767 346.542 591.752 347.905 590.627C349.268 589.501 351.283 589.678 352.408 591.101C357.919 597.737 364.2 603.247 371.31 607.632C378.065 611.72 385.53 614.861 393.707 616.935C395.307 613.853 396.848 610.772 398.21 607.691C390.922 605.558 384.168 602.596 378.005 598.803C370.54 594.241 363.903 588.434 358.156 581.383C357.03 580.02 357.208 578.006 358.571 576.88C359.933 575.754 361.948 575.991 363.074 577.354C368.407 583.813 374.51 589.145 381.383 593.352C387.249 596.967 393.707 599.751 400.818 601.707C401.292 600.462 401.825 599.218 402.299 597.974C398.033 594.478 393.885 590.449 389.737 585.886C382.627 577.947 383.279 565.8 391.219 558.69C396.67 553.772 404.076 552.527 410.535 554.838ZM675.037 723.707C675.511 722.996 676.045 722.285 676.519 721.574H676.578C687.125 707.057 705.73 690.289 727.061 675.002C728.424 673.995 729.846 672.987 731.209 672.039C732.927 662.322 736.601 653.375 742.23 645.139C728.839 653.849 716.751 664.277 706.5 675.239C693.109 689.696 682.918 704.984 677.17 718.315C676.341 720.152 675.63 721.989 675.037 723.707Z" fill="#FAA41D"/>
<path fill-rule="evenodd" clip-rule="evenodd" d="M336.647 339.693L469.136 328.316L454.323 540.558L479.92 312.2L336.647 339.693Z" fill="white"/>
<path fill-rule="evenodd" clip-rule="evenodd" d="M741.281 369.26C741.874 372.46 742.289 376.015 742.407 379.866L774.107 388.458L766.227 540.321L782.995 378.8L741.281 369.26ZM741.696 379.688C736.008 371.867 729.253 366.89 721.787 364.757L718.706 364.046C711.833 362.861 704.367 363.927 696.664 367.423L741.696 379.688ZM692.221 366.238C693.702 363.572 695.302 361.202 696.901 359.009L620.821 341.53C621.355 343.367 621.829 345.263 622.244 347.277L692.221 366.238ZM613.415 344.848C607.786 340.404 601.801 337.382 595.639 335.782L593.032 335.19C587.877 334.123 582.604 334.123 577.271 335.071L613.415 344.848ZM563.88 331.398C564.473 330.509 565.006 329.679 565.598 328.85L492.836 312.141L563.88 331.398Z" fill="white"/>
<path fill-rule="evenodd" clip-rule="evenodd" d="M333.329 375.896C335.818 376.489 338.306 377.259 340.854 378.029C339.61 371.571 338.662 364.994 337.951 358.298H334.929L333.329 375.896ZM337.062 347.277C336.884 344.729 336.766 342.241 336.647 339.693L335.996 347.218L337.062 347.277ZM501.25 324.406L467.002 542.632L594.691 541.625C590.425 535.759 587.225 528.708 585.566 520.59C614.719 559.045 655.129 561.474 688.369 528.589C686.651 533.211 684.459 537.299 681.97 540.973L766.227 540.321C735.89 531.907 707.508 520.827 681.081 507.14C675.511 513.717 669.349 518.576 662.831 521.835C654.655 525.923 646.004 527.464 637.531 526.397C629.117 525.271 620.94 521.657 613.771 515.435C602.039 505.125 592.914 487.764 589.951 463.352C585.507 460.271 581.893 456.124 579.7 451.146C591.432 456.005 602.631 459.857 613.296 462.938C598.543 451.028 584.618 437.992 571.464 423.95C564.413 423.002 557.185 422.587 549.837 422.587C554.103 419.921 559.495 418.143 565.421 417.313C541.186 390.176 519.796 359.187 501.25 324.406ZM454.322 540.558C406.684 508.74 373.443 470.226 354.719 425.135C346.128 419.565 337.832 415.536 329.893 412.929L322.071 498.074L454.322 540.558Z" fill="#8D8D8D"/>
<path d="M764.508 395.805C763.975 394.679 763.264 393.849 762.494 393.731H762.375C761.783 393.672 761.131 394.027 760.539 394.738C759.768 395.627 759.116 397.049 758.82 398.708C758.761 399.064 758.761 399.36 758.702 399.656C758.524 401.671 758.82 403.567 759.472 404.989C759.946 406.115 760.657 406.885 761.427 407.063H761.546C762.138 407.122 762.79 406.766 763.383 406.055C764.153 405.107 764.805 403.745 765.101 402.086C765.16 401.73 765.219 401.434 765.219 401.138C765.456 399.123 765.101 397.227 764.508 395.805Z" fill="#F57423"/>
<path d="M762.73 424.601C762.256 423.476 761.545 422.646 760.775 422.528H760.657C760.064 422.468 759.412 422.824 758.82 423.535C758.049 424.424 757.398 425.846 757.101 427.505C757.042 427.86 756.983 428.157 756.983 428.453C756.805 430.467 757.101 432.363 757.753 433.786C758.227 434.911 758.938 435.682 759.709 435.859H759.827C760.42 435.919 761.071 435.563 761.664 434.852C762.434 433.904 763.086 432.541 763.382 430.882C763.441 430.527 763.501 430.23 763.501 429.934C763.678 427.92 763.382 426.023 762.73 424.601Z" fill="#8ED6EC"/>
<path fill-rule="evenodd" clip-rule="evenodd" d="M436.487 307.519C430.384 293.061 423.156 277.952 414.86 262.309C411.424 255.792 407.809 249.215 403.958 242.46L391.456 242.164L383.279 242.045C390.626 253.777 397.44 265.331 403.721 276.589C410.298 288.203 416.282 299.461 421.615 310.363L436.487 307.519ZM576.382 318.184C513.575 301.297 452.486 264.146 393.115 206.731C404.195 224.506 414.09 241.63 422.8 258.102C431.569 274.693 439.154 290.573 445.494 305.801L485.667 298.098C486.615 297.802 487.622 297.802 488.689 298.039L576.382 318.184Z" fill="#8ED6EC"/>
<path fill-rule="evenodd" clip-rule="evenodd" d="M303.407 588.79C306.192 595.426 309.569 601.529 313.361 607.099C316.679 596.552 322.486 585.412 330.841 574.688C326.337 575.043 321.182 575.399 315.435 575.695C311.761 579.25 308.265 582.983 305.007 586.834L303.407 588.79ZM336.055 568.407C344.943 558.453 356.201 548.972 369.829 540.736C367.103 541.743 364.318 542.869 361.474 544.173C349.268 549.683 336.351 557.682 324.619 567.518C328.944 567.755 332.796 568.111 336.055 568.407ZM706.5 675.239C693.109 689.696 682.918 704.984 677.17 718.315C676.341 720.152 675.63 721.989 675.037 723.707L676.578 721.574C687.125 707.057 705.73 690.289 727.061 675.002L731.209 672.039C722.913 675.891 715.151 676.483 707.982 673.758C707.448 674.232 706.974 674.765 706.5 675.239Z" fill="#D47E00"/>
<path fill-rule="evenodd" clip-rule="evenodd" d="M218.261 431.889C216.72 435.267 216.72 439.178 218.083 442.97C220.157 438.763 223.89 435.622 227.445 434.082C226.912 430.764 227.267 427.327 228.63 424.127C223.89 425.312 220.098 427.979 218.261 431.889ZM813.332 456.479C813.688 458.138 814.28 459.797 815.11 461.397C816.65 464.419 819.02 467.263 821.983 469.692C822.101 466.611 822.931 464.064 824.412 461.99C822.753 461.279 821.035 460.508 819.317 459.679L816.532 458.257L813.332 456.479ZM859.845 403.508C854.216 408.722 852.261 414.469 852.913 419.032C853.209 421.165 854.098 422.942 855.401 424.305C856.646 425.549 858.423 426.379 860.556 426.557C865.296 427.031 871.636 424.424 878.865 417.017C866.244 416.365 859.904 411.862 859.845 403.508ZM839.522 387.272C837.566 390.591 835.907 394.501 834.663 399.004C835.492 399.597 836.381 400.249 837.211 400.96C840.647 403.804 843.314 406.707 845.21 409.611C846.75 405.048 849.713 400.427 854.394 396.338C847.284 396.634 842.306 393.672 839.522 387.272ZM814.576 392.664C818.428 392.487 822.516 393.079 826.605 394.62C827.849 390.65 829.389 387.035 831.167 383.836C824.708 384.902 820.442 383.006 818.487 378.088C816.472 382.236 815.11 387.154 814.576 392.664ZM797.097 421.165C797.275 430.527 803.792 441.429 820.679 450.317L823.227 451.561C837.922 458.731 850.72 460.034 861.563 456.242C867.37 454.168 872.703 450.613 877.502 445.636C854.394 449.547 834.781 445.577 818.724 433.786C813.332 430.408 808.947 425.194 808.592 418.913C817.361 427.86 826.486 430.408 832.885 429.045C834.9 428.631 836.559 427.801 837.862 426.675C820.146 428.749 804.385 409.433 820.087 402.086C815.643 401.138 811.495 401.73 807.999 403.389C804.74 404.93 801.956 407.418 800.06 410.44C798.104 413.521 797.038 417.195 797.097 421.165ZM207.24 499.852C198.885 495.23 193.908 488.416 192.545 480.891C188.753 487.35 186.62 493.275 186.087 498.371C185.613 502.518 186.146 506.073 187.568 508.799C188.931 511.288 191.064 513.124 193.908 514.132C195.863 514.784 198.234 515.139 200.9 514.961C200.841 509.688 202.618 504.237 207.24 499.852ZM239.177 505.836C226.438 506.547 216.069 504.414 208.366 500.444C205.64 510.932 208.484 519.405 213.639 524.56C216.069 526.93 219.031 528.589 222.172 529.3C225.193 529.952 228.393 529.715 231.415 528.352C237.577 525.627 243.028 518.398 245.339 505.244C242.673 506.784 240.066 509.095 237.755 512.236C238.11 509.806 238.584 507.673 239.177 505.836ZM210.617 448.362C209.61 446.229 208.899 444.036 208.484 441.844C199.004 444.688 190.886 450.909 185.257 458.316C182.176 462.464 179.865 466.967 178.562 471.411C177.318 475.677 177.021 479.884 177.851 483.617C178.325 485.809 179.214 487.824 180.517 489.661C182.946 485.513 186.798 481.839 192.368 479.41C191.183 468.863 196.989 457.249 210.617 448.362ZM802.43 643.361L849.239 663.922C860.319 628.726 826.96 634.177 802.43 643.361ZM771.381 657.759L836.263 686.26C840.944 680.69 844.44 675.18 846.869 669.906L794.134 646.679C786.728 649.82 779.084 653.552 771.381 657.759ZM744.422 673.935L815.821 705.28C821.983 700.658 827.316 695.977 831.76 691.296L764.39 661.611C757.694 665.462 750.999 669.61 744.422 673.935ZM720.247 691.296L789.809 721.93C793.897 719.619 797.867 717.249 801.896 714.819C804.622 713.101 807.288 711.383 809.777 709.664L738.141 678.142L732.275 682.29C728.186 685.252 724.157 688.274 720.247 691.296ZM698.857 709.901L760.005 736.802C767.471 733.543 775.114 729.869 782.758 725.781L714.618 695.799C708.929 700.54 703.597 705.28 698.857 709.901ZM681.436 730.284L724.75 749.363C733.282 747.053 742.407 744.031 751.887 740.239L694.057 714.76C690.087 718.967 686.651 722.996 683.806 726.848L681.436 730.284ZM714.381 751.734L678.237 735.854C674.978 742.609 674.8 747.941 678.888 750.963C686.414 754.815 698.916 754.815 714.381 751.734ZM311.287 615.216C306.606 609.054 302.458 602.181 298.963 594.596C284.09 615.69 281.72 635.48 287.231 650.116C289.541 656.337 293.274 661.611 298.074 665.64C302.814 669.61 308.621 672.454 315.138 673.698C326.752 675.95 340.498 673.283 354.363 663.981C320.412 668.603 305.421 645.02 311.287 615.216Z" fill="#D9D9D9"/>
</svg>
